<svg width="535" height="551" viewBox="0 0 535 551" fill="none" xmlns="http://www.w3.org/2000/svg">
<path d="M340.011 82.3703C344.838 82.4249 349.466 84.4609 352.842 88.0147L451.478 191.856C454.79 195.343 456.622 200.003 456.571 204.811L455.017 350.596C454.967 355.315 453.106 359.802 449.83 363.102L348.639 465.056C345.302 468.418 340.766 470.277 336.03 470.224L194.989 468.629C190.162 468.575 185.534 466.539 182.158 462.985L83.5219 359.144C80.2096 355.657 78.3775 350.996 78.4288 346.188L79.9827 200.403C80.033 195.684 81.8936 191.198 85.1692 187.898L186.36 85.9437C189.698 82.581 194.233 80.7221 198.97 80.7756L340.011 82.3703Z" fill="#08457D"/>
<path d="M231.539 328H162.085V312.961L194.078 279.328C201.962 270.35 205.904 263.218 205.904 257.932C205.904 253.648 204.97 250.389 203.101 248.156C201.233 245.923 198.521 244.807 194.966 244.807C191.457 244.807 188.609 246.311 186.421 249.318C184.234 252.281 183.14 255.995 183.14 260.461H160.035C160.035 254.354 161.561 248.726 164.615 243.576C167.668 238.381 171.906 234.325 177.33 231.408C182.753 228.492 188.814 227.033 195.513 227.033C206.268 227.033 214.54 229.517 220.328 234.484C226.161 239.452 229.078 246.584 229.078 255.881C229.078 259.8 228.348 263.628 226.89 267.365C225.432 271.057 223.153 274.953 220.054 279.055C217.001 283.111 212.056 288.557 205.22 295.393L192.369 310.227H231.539V328ZM294.224 328H271.119V254.445L248.423 261.076V243.576L292.105 228.469H294.224V328ZM366.138 271.535H389.449V291.291H366.138V318.02H344.605V291.291H321.226V271.535H344.605V245.559H366.138V271.535Z" fill="white"/>
</svg>
