<svg width="100" height="101" viewBox="0 0 100 101" fill="none" xmlns="http://www.w3.org/2000/svg">
<path d="M90 0.159973H10C5 0.159973 0 4.65997 0 10.16V25.21C0 28.81 2.15 31.91 5 33.66V90.16C5 95.66 10.5 100.16 15 100.16H85C89.5 100.16 95 95.66 95 90.16V33.66C97.85 31.91 100 28.81 100 25.21V10.16C100 4.65997 95 0.159973 90 0.159973ZM85 90.16H15V35.16H85V90.16ZM90 25.16H10V10.16H90V25.16Z" fill="black"/>
<path d="M38.3595 52.32H61.6395C62.3023 52.32 62.8395 52.8573 62.8395 53.52V56.8C62.8395 57.4627 62.3023 58 61.6395 58H38.3595C37.6968 58 37.1595 57.4627 37.1595 56.8V53.52C37.1595 52.8573 37.6968 52.32 38.3595 52.32Z" stroke="black" stroke-width="4.32"/>
</svg>
