<svg width="149" height="150" viewBox="0 0 149 150" fill="none" xmlns="http://www.w3.org/2000/svg">
<path d="M115.439 68.96C113.318 68.96 111.6 70.6793 111.6 72.8C111.6 74.3745 111.6 75.9455 111.6 77.52C111.6 79.6408 113.318 81.36 115.439 81.36C120.878 81.36 127.017 81.36 132.561 81.36C134.681 81.36 136.4 79.6408 136.4 77.52C136.4 75.9455 136.4 74.3745 136.4 72.8C136.4 70.6793 134.681 68.96 132.561 68.96C127.017 68.96 120.878 68.96 115.439 68.96Z" fill="black"/>
<path d="M101.529 106.841C100.25 108.552 100.601 110.977 102.314 112.252C106.659 115.485 111.561 119.162 115.981 122.471C117.673 123.737 120.07 123.396 121.336 121.704C122.279 120.445 123.221 119.183 124.164 117.925C125.439 116.221 125.095 113.805 123.392 112.529C118.972 109.218 114.072 105.537 109.73 102.278C108.026 101 105.61 101.353 104.34 103.064C103.403 104.327 102.466 105.587 101.529 106.841Z" fill="black"/>
<path d="M123.422 37.7897C125.114 36.5155 125.448 34.1109 124.178 32.4154C123.231 31.1501 122.284 29.8813 121.336 28.616C120.07 26.9239 117.673 26.5826 115.981 27.8498C111.55 31.1682 106.634 34.8612 102.281 38.1289C100.581 39.4048 100.24 41.8182 101.514 43.5195C102.456 44.7782 103.399 46.0404 104.341 47.2991C105.61 48.9932 108.01 49.3333 109.704 48.0655C114.062 44.8047 118.986 41.1308 123.422 37.7897Z" fill="black"/>
<path d="M24.8004 56.5599C17.9804 56.5599 12.4004 62.1399 12.4004 68.9599V81.3599C12.4004 88.1799 17.9804 93.7599 24.8004 93.7599H27.1604C29.2812 93.7599 31.0004 95.4791 31.0004 97.5999V114.72C31.0004 116.841 32.7196 118.56 34.8404 118.56H39.5604C41.6812 118.56 43.4004 116.841 43.4004 114.72V97.5999C43.4004 95.4791 45.1196 93.7599 47.2404 93.7599H48.5368C49.2327 93.7599 49.9156 93.949 50.5124 94.3071L74.7847 108.87C77.3442 110.406 80.6004 108.563 80.6004 105.578V44.7421C80.6004 41.7573 77.3442 39.9136 74.7847 41.4493L50.5124 56.0127C49.9156 56.3707 49.2327 56.5599 48.5368 56.5599H24.8004ZM55.9864 67.1619L62.3872 63.3279C64.9467 61.7948 68.2004 63.6386 68.2004 66.6222V83.6976C68.2004 86.6812 64.9467 88.525 62.3872 86.9919L55.9864 83.1579L53.9262 81.9132C53.3271 81.5512 52.6404 81.3599 51.9405 81.3599H49.6004H28.6404C26.5196 81.3599 24.8004 79.6407 24.8004 77.5199V72.7999C24.8004 70.6791 26.5196 68.9599 28.6404 68.9599H49.6004H51.9405C52.6404 68.9599 53.3271 68.7686 53.9262 68.4066L55.9864 67.1619Z" fill="black"/>
<path d="M96.0998 75.1596C96.0998 68.8379 93.9863 62.9899 90.4298 58.314C89.1752 56.6646 86.7998 57.6713 86.7998 59.7436V90.5569C86.7998 92.6223 89.1622 93.6315 90.4185 91.992C93.9818 87.3417 96.0998 81.488 96.0998 75.1596Z" fill="black"/>
</svg>
