<svg width="1388" height="336" viewBox="0 0 1388 336" fill="none" xmlns="http://www.w3.org/2000/svg">
<path d="M670.461 232.477C691.462 255.013 692.548 288.136 692.548 288.136C692.548 288.136 659.583 284.721 638.582 262.186C617.581 239.65 616.495 206.526 616.495 206.526C616.495 206.526 649.46 209.941 670.461 232.477Z" fill="#0086CB"/>
<path d="M736.576 267.653C714.04 288.655 680.917 289.74 680.917 289.74C680.917 289.74 684.332 256.776 706.867 235.774C729.403 214.773 762.527 213.688 762.527 213.688C762.527 213.688 759.112 246.652 736.576 267.653Z" fill="#0086CB"/>
<path d="M730.975 334.539H648.086C646.496 334.539 644.938 334.092 643.59 333.249C642.242 332.406 641.158 331.2 640.463 329.77L622.416 292.674C621.787 291.382 621.497 289.951 621.573 288.515C621.65 287.08 622.09 285.688 622.852 284.469C623.614 283.25 624.674 282.246 625.931 281.549C627.189 280.853 628.602 280.487 630.04 280.487H749.022C750.459 280.487 751.873 280.853 753.13 281.549C754.387 282.246 755.447 283.25 756.209 284.469C756.971 285.688 757.411 287.08 757.488 288.515C757.564 289.951 757.274 291.382 756.645 292.674L738.599 329.77C737.903 331.2 736.819 332.406 735.471 333.249C734.123 334.092 732.565 334.539 730.975 334.539Z" fill="#3F3D56"/>
<path d="M1273.13 316.187V321.884C1273.13 323.447 1272.84 324.997 1272.28 326.454C1272.02 327.104 1271.72 327.731 1271.36 328.331C1270.25 330.209 1268.66 331.764 1266.76 332.843C1264.86 333.922 1262.71 334.489 1260.52 334.488H841.419C839.234 334.489 837.085 333.922 835.185 332.843C833.285 331.764 831.697 330.209 830.579 328.331C830.225 327.731 829.921 327.104 829.669 326.454C829.101 324.997 828.811 323.447 828.814 321.884V316.187C828.814 314.531 829.14 312.892 829.773 311.363C830.406 309.833 831.335 308.443 832.505 307.273C833.676 306.102 835.066 305.174 836.595 304.541C838.124 303.907 839.764 303.582 841.419 303.582H865.577V300.926C865.577 300.857 865.591 300.788 865.617 300.725C865.643 300.661 865.682 300.603 865.731 300.554C865.78 300.505 865.838 300.467 865.901 300.44C865.965 300.414 866.034 300.4 866.103 300.4H878.707C878.776 300.4 878.845 300.414 878.909 300.44C878.972 300.467 879.03 300.505 879.079 300.554C879.128 300.603 879.167 300.661 879.193 300.725C879.22 300.788 879.233 300.857 879.233 300.926V303.582H887.107V300.926C887.107 300.857 887.121 300.788 887.147 300.725C887.173 300.661 887.212 300.603 887.261 300.554C887.31 300.505 887.368 300.467 887.432 300.44C887.495 300.414 887.564 300.4 887.633 300.4H900.237C900.307 300.4 900.375 300.414 900.439 300.44C900.503 300.467 900.561 300.505 900.609 300.554C900.658 300.603 900.697 300.661 900.723 300.725C900.75 300.788 900.763 300.857 900.763 300.926V303.582H908.647V300.926C908.647 300.857 908.66 300.788 908.687 300.725C908.713 300.661 908.752 300.603 908.8 300.554C908.849 300.505 908.907 300.467 908.971 300.44C909.035 300.414 909.103 300.4 909.172 300.4H921.777C921.846 300.4 921.914 300.414 921.978 300.44C922.042 300.467 922.1 300.505 922.149 300.554C922.198 300.603 922.236 300.661 922.263 300.725C922.289 300.788 922.303 300.857 922.303 300.926V303.582H930.177V300.926C930.177 300.857 930.19 300.788 930.217 300.725C930.243 300.661 930.282 300.603 930.331 300.554C930.379 300.505 930.437 300.467 930.501 300.44C930.565 300.414 930.633 300.4 930.702 300.4H943.307C943.376 300.4 943.445 300.414 943.508 300.44C943.572 300.467 943.63 300.505 943.679 300.554C943.728 300.603 943.766 300.661 943.793 300.725C943.819 300.788 943.833 300.857 943.833 300.926V303.582H951.707V300.926C951.707 300.857 951.72 300.788 951.747 300.725C951.773 300.661 951.812 300.603 951.861 300.554C951.91 300.505 951.968 300.467 952.031 300.44C952.095 300.414 952.164 300.4 952.233 300.4H964.837C964.906 300.4 964.975 300.414 965.039 300.44C965.102 300.467 965.16 300.505 965.209 300.554C965.258 300.603 965.297 300.661 965.323 300.725C965.35 300.788 965.363 300.857 965.363 300.926V303.582H973.247V300.926C973.247 300.857 973.26 300.788 973.286 300.725C973.313 300.661 973.352 300.603 973.4 300.554C973.449 300.505 973.507 300.467 973.571 300.44C973.635 300.414 973.703 300.4 973.772 300.4H986.377C986.446 300.4 986.514 300.414 986.578 300.44C986.642 300.467 986.7 300.505 986.749 300.554C986.798 300.603 986.836 300.661 986.863 300.725C986.889 300.788 986.903 300.857 986.902 300.926V303.582H994.777V300.926C994.777 300.857 994.79 300.788 994.817 300.725C994.843 300.661 994.882 300.603 994.93 300.554C994.979 300.505 995.037 300.467 995.101 300.44C995.165 300.414 995.233 300.4 995.302 300.4H1094.04C1094.11 300.4 1094.17 300.414 1094.24 300.44C1094.3 300.467 1094.36 300.505 1094.41 300.554C1094.46 300.603 1094.5 300.661 1094.52 300.725C1094.55 300.788 1094.56 300.857 1094.56 300.926V303.582H1102.45V300.926C1102.45 300.857 1102.46 300.788 1102.49 300.725C1102.51 300.661 1102.55 300.603 1102.6 300.554C1102.65 300.505 1102.71 300.467 1102.77 300.44C1102.83 300.414 1102.9 300.4 1102.97 300.4H1115.58C1115.72 300.402 1115.85 300.458 1115.95 300.556C1116.04 300.654 1116.1 300.787 1116.1 300.926V303.582H1123.98V300.926C1123.98 300.857 1123.99 300.788 1124.02 300.725C1124.04 300.661 1124.08 300.603 1124.13 300.554C1124.18 300.505 1124.24 300.467 1124.3 300.44C1124.36 300.414 1124.43 300.4 1124.5 300.4H1137.11C1137.18 300.4 1137.24 300.414 1137.31 300.44C1137.37 300.467 1137.43 300.505 1137.48 300.554C1137.53 300.603 1137.57 300.661 1137.59 300.725C1137.62 300.789 1137.63 300.857 1137.63 300.926V303.582H1145.51V300.926C1145.51 300.857 1145.52 300.788 1145.55 300.725C1145.57 300.661 1145.61 300.603 1145.66 300.554C1145.71 300.505 1145.77 300.467 1145.83 300.44C1145.89 300.414 1145.96 300.4 1146.03 300.4H1158.64C1158.71 300.4 1158.77 300.414 1158.84 300.44C1158.9 300.467 1158.96 300.505 1159.01 300.554C1159.06 300.603 1159.1 300.661 1159.12 300.725C1159.15 300.788 1159.16 300.857 1159.16 300.926V303.582H1167.05V300.926C1167.05 300.857 1167.06 300.788 1167.09 300.725C1167.11 300.661 1167.15 300.603 1167.2 300.554C1167.25 300.505 1167.31 300.467 1167.37 300.44C1167.43 300.414 1167.5 300.4 1167.57 300.4H1180.18C1180.31 300.402 1180.45 300.458 1180.54 300.557C1180.64 300.655 1180.69 300.788 1180.69 300.926V303.582H1188.58V300.926C1188.58 300.857 1188.59 300.788 1188.62 300.725C1188.64 300.661 1188.68 300.603 1188.73 300.554C1188.78 300.505 1188.84 300.467 1188.9 300.44C1188.96 300.414 1189.03 300.4 1189.1 300.4H1201.71C1201.78 300.4 1201.84 300.414 1201.91 300.44C1201.97 300.467 1202.03 300.505 1202.08 300.554C1202.13 300.603 1202.17 300.661 1202.19 300.725C1202.22 300.788 1202.23 300.857 1202.23 300.926V303.582H1210.11V300.926C1210.11 300.857 1210.12 300.788 1210.15 300.725C1210.17 300.661 1210.21 300.603 1210.26 300.554C1210.31 300.505 1210.37 300.467 1210.43 300.44C1210.49 300.414 1210.56 300.4 1210.63 300.4H1223.24C1223.31 300.4 1223.37 300.414 1223.44 300.44C1223.5 300.467 1223.56 300.505 1223.61 300.554C1223.66 300.603 1223.7 300.661 1223.72 300.725C1223.75 300.788 1223.76 300.857 1223.76 300.926V303.582H1260.52C1262.18 303.582 1263.82 303.907 1265.35 304.541C1266.88 305.174 1268.27 306.102 1269.44 307.273C1270.61 308.443 1271.54 309.833 1272.17 311.363C1272.8 312.892 1273.13 314.531 1273.13 316.187Z" fill="#3F3D56"/>
<path d="M1239.38 3.22363H1083.17V0.00390625H1012.34V3.22363H855.479C854.091 3.22363 852.717 3.49696 851.435 4.02798C850.153 4.55901 848.988 5.33737 848.007 6.31857C847.026 7.29978 846.247 8.46463 845.716 9.74663C845.185 11.0286 844.912 12.4027 844.912 13.7903V227.695C844.912 230.497 846.025 233.185 848.007 235.166C849.989 237.148 852.676 238.261 855.479 238.261H1239.38C1242.19 238.261 1244.87 237.148 1246.85 235.166C1248.84 233.185 1249.95 230.497 1249.95 227.695V13.7903C1249.95 12.4027 1249.68 11.0286 1249.15 9.74663C1248.61 8.46463 1247.84 7.29978 1246.85 6.31857C1245.87 5.33737 1244.71 4.55901 1243.43 4.02798C1242.14 3.49696 1240.77 3.22363 1239.38 3.22363Z" fill="#3F3D56"/>
<path fill-rule="evenodd" clip-rule="evenodd" d="M1047.74 99.2656C1035.33 99.2656 1025.27 109.323 1025.27 121.729C1025.27 134.135 1035.33 144.193 1047.74 144.193C1060.14 144.193 1070.2 134.135 1070.2 121.729C1070.2 109.323 1060.14 99.2656 1047.74 99.2656ZM1023.27 121.729C1023.27 108.218 1034.23 97.2656 1047.74 97.2656C1061.25 97.2656 1072.2 108.218 1072.2 121.729C1072.2 135.24 1061.25 146.193 1047.74 146.193C1034.23 146.193 1023.27 135.24 1023.27 121.729Z" fill="#D0CDE1"/>
<path d="M1040.23 153.64C1053.19 153.64 1063.69 143.135 1063.69 130.176C1063.69 117.218 1053.19 106.713 1040.23 106.713C1027.27 106.713 1016.77 117.218 1016.77 130.176C1016.77 143.135 1027.27 153.64 1040.23 153.64Z" fill="#D0CDE1"/>
<path d="M561.581 316.187V321.884C561.584 323.447 561.295 324.997 560.727 326.454C560.475 327.104 560.171 327.731 559.817 328.331C558.698 330.209 557.111 331.764 555.211 332.843C553.31 333.922 551.162 334.489 548.977 334.488H129.871C127.686 334.489 125.538 333.922 123.637 332.843C121.737 331.764 120.15 330.209 119.031 328.331C118.677 327.731 118.373 327.104 118.121 326.454C117.553 324.997 117.263 323.447 117.267 321.884V316.187C117.266 314.531 117.592 312.892 118.225 311.363C118.858 309.833 119.787 308.443 120.957 307.273C122.128 306.102 123.518 305.174 125.047 304.541C126.577 303.907 128.216 303.582 129.871 303.582H154.029V300.926C154.029 300.857 154.043 300.788 154.069 300.725C154.095 300.661 154.134 300.603 154.183 300.554C154.232 300.505 154.29 300.467 154.354 300.44C154.417 300.414 154.486 300.4 154.555 300.4H167.159C167.228 300.4 167.297 300.414 167.361 300.44C167.425 300.467 167.483 300.505 167.531 300.554C167.58 300.603 167.619 300.661 167.645 300.725C167.672 300.788 167.685 300.857 167.685 300.926V303.582H175.559V300.926C175.559 300.857 175.573 300.788 175.599 300.725C175.626 300.661 175.664 300.603 175.713 300.554C175.762 300.505 175.82 300.467 175.884 300.44C175.948 300.414 176.016 300.4 176.085 300.4H188.69C188.759 300.4 188.827 300.414 188.891 300.44C188.955 300.467 189.013 300.505 189.061 300.554C189.11 300.603 189.149 300.661 189.175 300.725C189.202 300.788 189.215 300.857 189.215 300.926V303.582H197.099V300.926C197.099 300.857 197.112 300.788 197.139 300.725C197.165 300.661 197.204 300.603 197.253 300.554C197.301 300.505 197.359 300.467 197.423 300.44C197.487 300.414 197.556 300.4 197.625 300.4H210.229C210.298 300.4 210.367 300.414 210.43 300.44C210.494 300.467 210.552 300.505 210.601 300.554C210.65 300.603 210.689 300.661 210.715 300.725C210.741 300.788 210.755 300.857 210.755 300.926V303.582H218.629V300.926C218.629 300.857 218.643 300.788 218.669 300.725C218.695 300.661 218.734 300.603 218.783 300.554C218.832 300.505 218.89 300.467 218.953 300.44C219.017 300.414 219.086 300.4 219.155 300.4H231.759C231.828 300.4 231.897 300.414 231.961 300.44C232.024 300.467 232.082 300.505 232.131 300.554C232.18 300.603 232.219 300.661 232.245 300.725C232.271 300.788 232.285 300.857 232.285 300.926V303.582H240.159V300.926C240.159 300.857 240.173 300.788 240.199 300.725C240.225 300.661 240.264 300.603 240.313 300.554C240.362 300.505 240.42 300.467 240.484 300.44C240.547 300.414 240.616 300.4 240.685 300.4H253.289C253.358 300.4 253.427 300.414 253.491 300.44C253.554 300.467 253.612 300.505 253.661 300.554C253.71 300.603 253.749 300.661 253.775 300.725C253.802 300.788 253.815 300.857 253.815 300.926V303.582H261.699V300.926C261.699 300.857 261.712 300.788 261.738 300.725C261.765 300.661 261.803 300.603 261.852 300.554C261.901 300.505 261.959 300.467 262.023 300.44C262.087 300.414 262.155 300.4 262.224 300.4H274.829C274.898 300.4 274.966 300.414 275.03 300.44C275.094 300.467 275.152 300.505 275.201 300.554C275.25 300.603 275.288 300.661 275.315 300.725C275.341 300.788 275.355 300.857 275.354 300.926V303.582H283.229V300.926C283.229 300.857 283.242 300.788 283.269 300.725C283.295 300.661 283.334 300.603 283.383 300.554C283.431 300.505 283.489 300.467 283.553 300.44C283.617 300.414 283.685 300.4 283.754 300.4H382.489C382.558 300.4 382.626 300.414 382.69 300.44C382.754 300.467 382.812 300.505 382.861 300.554C382.91 300.603 382.948 300.661 382.975 300.725C383.001 300.788 383.015 300.857 383.015 300.926V303.582H390.898V300.926C390.898 300.857 390.912 300.788 390.938 300.725C390.964 300.661 391.003 300.603 391.052 300.554C391.101 300.505 391.159 300.467 391.223 300.44C391.286 300.414 391.355 300.4 391.424 300.4H404.028C404.167 300.402 404.3 300.458 404.399 300.556C404.497 300.654 404.553 300.787 404.554 300.926V303.582H412.428V300.926C412.428 300.857 412.442 300.788 412.468 300.725C412.495 300.661 412.533 300.603 412.582 300.554C412.631 300.505 412.689 300.467 412.753 300.44C412.817 300.414 412.885 300.4 412.954 300.4H425.559C425.628 300.4 425.696 300.414 425.76 300.44C425.824 300.467 425.882 300.505 425.93 300.554C425.979 300.603 426.018 300.661 426.044 300.725C426.071 300.788 426.084 300.857 426.084 300.926V303.582H433.958V300.926C433.958 300.857 433.972 300.788 433.998 300.725C434.025 300.661 434.063 300.603 434.112 300.554C434.161 300.505 434.219 300.467 434.283 300.44C434.347 300.414 434.415 300.4 434.484 300.4H447.089C447.158 300.4 447.226 300.414 447.29 300.44C447.354 300.467 447.412 300.505 447.461 300.554C447.509 300.603 447.548 300.661 447.574 300.725C447.601 300.788 447.614 300.857 447.614 300.926V303.582H455.498V300.926C455.498 300.857 455.511 300.788 455.538 300.725C455.564 300.661 455.603 300.603 455.652 300.554C455.701 300.505 455.759 300.467 455.822 300.44C455.886 300.414 455.955 300.4 456.024 300.4H468.628C468.766 300.402 468.898 300.458 468.995 300.557C469.091 300.655 469.145 300.788 469.144 300.926V303.582H477.028V300.926C477.028 300.857 477.042 300.788 477.068 300.725C477.094 300.661 477.133 300.603 477.182 300.554C477.231 300.505 477.289 300.467 477.352 300.44C477.416 300.414 477.485 300.4 477.554 300.4H490.158C490.227 300.4 490.296 300.414 490.36 300.44C490.423 300.467 490.481 300.505 490.53 300.554C490.579 300.603 490.618 300.661 490.644 300.725C490.671 300.788 490.684 300.857 490.684 300.926V303.582H498.558V300.926C498.558 300.857 498.572 300.788 498.598 300.725C498.624 300.661 498.663 300.603 498.712 300.554C498.761 300.505 498.819 300.467 498.883 300.44C498.946 300.414 499.015 300.4 499.084 300.4H511.689C511.758 300.4 511.826 300.414 511.89 300.44C511.954 300.467 512.012 300.505 512.06 300.554C512.109 300.603 512.148 300.661 512.174 300.725C512.201 300.788 512.214 300.857 512.214 300.926V303.582H548.977C550.632 303.582 552.271 303.907 553.801 304.541C555.33 305.174 556.72 306.102 557.89 307.273C559.061 308.443 559.989 309.833 560.623 311.363C561.256 312.892 561.582 314.531 561.581 316.187Z" fill="#3F3D56"/>
<path d="M527.834 3.21973H371.62V0H300.787V3.21973H143.93C141.127 3.21973 138.44 4.33299 136.458 6.31462C134.476 8.29626 133.363 10.9839 133.363 13.7864V227.691C133.363 230.493 134.476 233.181 136.458 235.163C138.44 237.144 141.127 238.257 143.93 238.257H527.834C530.636 238.257 533.324 237.144 535.306 235.163C537.287 233.181 538.4 230.493 538.4 227.691V13.7864C538.4 10.9839 537.287 8.29626 535.306 6.31462C533.324 4.33299 530.636 3.21973 527.834 3.21973Z" fill="#3F3D56"/>
<path fill-rule="evenodd" clip-rule="evenodd" d="M336.189 99.2617C323.783 99.2617 313.726 109.319 313.726 121.725C313.726 134.132 323.783 144.189 336.189 144.189C348.595 144.189 358.653 134.132 358.653 121.725C358.653 109.319 348.595 99.2617 336.189 99.2617ZM311.726 121.725C311.726 108.214 322.678 97.2617 336.189 97.2617C349.7 97.2617 360.653 108.214 360.653 121.725C360.653 135.236 349.7 146.189 336.189 146.189C322.678 146.189 311.726 135.236 311.726 121.725Z" fill="#D0CDE1"/>
<path d="M328.681 153.635C341.639 153.635 352.144 143.13 352.144 130.172C352.144 117.213 341.639 106.708 328.681 106.708C315.722 106.708 305.217 117.213 305.217 130.172C305.217 143.13 315.722 153.635 328.681 153.635Z" fill="#D0CDE1"/>
<path d="M1387.83 333.078H0V336H1387.83V333.078Z" fill="#3F3D56"/>
<path d="M305.99 186.364C305.99 178.08 312.705 171.364 320.99 171.364H336.372C344.657 171.364 351.372 178.08 351.372 186.364V333.078H305.99V186.364Z" fill="black"/>
<path d="M1024.74 186.364C1024.74 178.08 1031.45 171.364 1039.74 171.364H1055.12C1063.41 171.364 1070.12 178.08 1070.12 186.364V333.078H1024.74V186.364Z" fill="black"/>
<path d="M249.606 336C249.606 324.705 258.763 315.548 270.058 315.548H387.303C398.599 315.548 407.756 324.705 407.756 336H249.606Z" fill="black"/>
<path d="M968.356 336C968.356 324.705 977.513 315.548 988.809 315.548H1106.05C1117.35 315.548 1126.51 324.705 1126.51 336H968.356Z" fill="black"/>
</svg>
