<svg width="45" height="58" viewBox="0 0 45 58" fill="none" xmlns="http://www.w3.org/2000/svg">
<mask id="path-1-inside-1" fill="white">
<path fill-rule="evenodd" clip-rule="evenodd" d="M22.294 57.3234C34.5927 57.3234 44.0333 33.7456 44.0333 21.7393C44.0333 9.73302 34.3003 0 22.294 0C10.2877 0 0.554688 9.73302 0.554688 21.7393C0.554688 33.7456 9.99533 57.3234 22.294 57.3234ZM22.0479 28.6633C26.0052 28.6633 29.2133 25.4553 29.2133 21.4979C29.2133 17.5406 26.0052 14.3325 22.0479 14.3325C18.0905 14.3325 14.8824 17.5406 14.8824 21.4979C14.8824 25.4553 18.0905 28.6633 22.0479 28.6633Z"/>
</mask>
<path fill-rule="evenodd" clip-rule="evenodd" d="M22.294 57.3234C34.5927 57.3234 44.0333 33.7456 44.0333 21.7393C44.0333 9.73302 34.3003 0 22.294 0C10.2877 0 0.554688 9.73302 0.554688 21.7393C0.554688 33.7456 9.99533 57.3234 22.294 57.3234ZM22.0479 28.6633C26.0052 28.6633 29.2133 25.4553 29.2133 21.4979C29.2133 17.5406 26.0052 14.3325 22.0479 14.3325C18.0905 14.3325 14.8824 17.5406 14.8824 21.4979C14.8824 25.4553 18.0905 28.6633 22.0479 28.6633Z" fill="#08457D"/>
<path d="M42.0333 21.7393C42.0333 27.3473 39.7889 35.9242 36.0064 43.1013C34.1237 46.6735 31.9183 49.785 29.5274 51.9779C27.1343 54.1728 24.6987 55.3234 22.294 55.3234V59.3234C26.0387 59.3234 29.3951 57.5269 32.2311 54.9257C35.0693 52.3226 37.5301 48.7893 39.545 44.9662C43.5574 37.3528 46.0333 28.1377 46.0333 21.7393H42.0333ZM22.294 2C33.1957 2 42.0333 10.8376 42.0333 21.7393H46.0333C46.0333 8.62846 35.4049 -2 22.294 -2V2ZM2.55469 21.7393C2.55469 10.8376 11.3923 2 22.294 2V-2C9.18314 -2 -1.44531 8.62846 -1.44531 21.7393H2.55469ZM22.294 55.3234C19.8893 55.3234 17.4537 54.1728 15.0606 51.9779C12.6697 49.785 10.4643 46.6735 8.58166 43.1013C4.79913 35.9242 2.55469 27.3473 2.55469 21.7393H-1.44531C-1.44531 28.1377 1.03057 37.3528 5.04303 44.9662C7.05788 48.7893 9.51867 52.3226 12.3569 54.9257C15.1929 57.5269 18.5494 59.3234 22.294 59.3234V55.3234ZM27.2133 21.4979C27.2133 24.3507 24.9007 26.6633 22.0479 26.6633V30.6633C27.1098 30.6633 31.2133 26.5598 31.2133 21.4979H27.2133ZM22.0479 16.3325C24.9007 16.3325 27.2133 18.6451 27.2133 21.4979H31.2133C31.2133 16.436 27.1098 12.3325 22.0479 12.3325V16.3325ZM16.8824 21.4979C16.8824 18.6451 19.1951 16.3325 22.0479 16.3325V12.3325C16.986 12.3325 12.8824 16.436 12.8824 21.4979H16.8824ZM22.0479 26.6633C19.1951 26.6633 16.8824 24.3507 16.8824 21.4979H12.8824C12.8824 26.5598 16.986 30.6633 22.0479 30.6633V26.6633Z" fill="#08457D" mask="url(#path-1-inside-1)"/>
</svg>
