<svg width="902" height="703" viewBox="0 0 902 703" fill="none" xmlns="http://www.w3.org/2000/svg">
<g clip-path="url(#clip0)">
<path d="M794.712 652.863C794.646 652.573 788.289 623.584 801.272 599.507C814.255 575.43 841.969 564.812 842.247 564.707L843.514 564.232L843.813 565.552C843.879 565.842 850.236 594.831 837.253 618.909C824.271 642.985 796.556 653.603 796.278 653.708L795.011 654.183L794.712 652.863ZM841.777 567.454C836.226 569.842 814.316 580.293 803.351 600.627C792.385 620.964 795.693 645.014 796.748 650.961C802.297 648.579 824.198 638.144 835.174 617.788C846.14 597.452 842.832 573.404 841.777 567.454Z" fill="#3F3D56"/>
<path d="M827.331 610.463C804 624.5 795.015 652.381 795.015 652.381C795.015 652.381 823.856 657.504 847.188 643.467C870.519 629.43 879.504 601.549 879.504 601.549C879.504 601.549 850.663 596.426 827.331 610.463Z" fill="#7FA4C7"/>
<path d="M320.418 526C317.644 526 314.841 525.956 312.09 525.87L312.152 523.872C316.103 523.995 320.134 524.029 324.103 523.975L324.13 525.975C322.895 525.991 321.657 526 320.418 526ZM336.163 525.536L336.046 523.54C340.002 523.307 344.009 522.978 347.955 522.565L348.164 524.554C344.188 524.971 340.15 525.302 336.163 525.536ZM300.067 525.225C296.078 524.919 292.047 524.518 288.085 524.032L288.329 522.048C292.261 522.529 296.261 522.928 300.22 523.23L300.067 525.225ZM360.106 523.025L359.807 521.049C363.737 520.452 367.698 519.76 371.576 518.989L371.966 520.95C368.058 521.727 364.067 522.425 360.106 523.025ZM276.171 522.294C272.231 521.626 268.252 520.858 264.348 520.011L264.772 518.056C268.647 518.897 272.594 519.659 276.505 520.321L276.171 522.294ZM383.72 518.332L383.239 516.391C387.098 515.436 390.978 514.382 394.772 513.257L395.34 515.175C391.517 516.308 387.607 517.371 383.72 518.332ZM252.644 517.185C248.778 516.157 244.888 515.026 241.081 513.822L241.684 511.916C245.461 513.11 249.322 514.232 253.157 515.252L252.644 517.185ZM406.802 511.484L406.145 509.596C409.89 508.294 413.655 506.887 417.34 505.412L418.082 507.269C414.37 508.755 410.575 510.173 406.802 511.484ZM229.656 509.918C225.902 508.538 222.124 507.049 218.429 505.492L219.205 503.648C222.872 505.193 226.621 506.671 230.347 508.041L229.656 509.918ZM429.131 502.55L428.303 500.729C431.898 499.096 435.513 497.352 439.045 495.546L439.955 497.327C436.395 499.146 432.754 500.903 429.131 502.55ZM450.529 491.611L449.539 489.875C452.987 487.907 456.43 485.839 459.769 483.727L460.837 485.416C457.473 487.545 454.005 489.63 450.529 491.611ZM470.853 478.754L469.708 477.115C472.955 474.847 476.195 472.471 479.339 470.055L480.558 471.641C477.391 474.075 474.125 476.469 470.853 478.754ZM166.027 475.937C162.799 473.593 159.574 471.137 156.442 468.636L157.69 467.073C160.798 469.555 163.999 471.992 167.202 474.318L166.027 475.937ZM489.93 464.092L488.641 462.562C491.667 460.009 494.679 457.348 497.594 454.652L498.951 456.121C496.015 458.837 492.979 461.518 489.93 464.092ZM147.202 460.906C144.195 458.273 141.209 455.535 138.325 452.767L139.709 451.323C142.572 454.071 145.536 456.789 148.519 459.402L147.202 460.906ZM507.603 447.745L506.179 446.341C508.969 443.514 511.729 440.588 514.38 437.645L515.866 438.983C513.194 441.949 510.414 444.896 507.603 447.745ZM129.83 444.233C127.071 441.333 124.347 438.335 121.733 435.323L123.244 434.013C125.838 437.002 128.541 439.977 131.279 442.854L129.83 444.233ZM523.723 429.853L522.178 428.584C524.698 425.517 527.18 422.352 529.556 419.175L531.157 420.372C528.764 423.573 526.263 426.764 523.723 429.853ZM114.052 426.057C111.575 422.927 109.136 419.695 106.802 416.452L108.425 415.284C110.741 418.502 113.162 421.709 115.62 424.816L114.052 426.057ZM538.151 410.56L536.497 409.436C538.728 406.152 540.912 402.772 542.989 399.389L544.694 400.435C542.6 403.845 540.398 407.251 538.151 410.56ZM100 406.53C97.8213 403.189 95.6885 399.752 93.6606 396.31L95.3833 395.295C97.396 398.71 99.5127 402.122 101.675 405.436L100 406.53ZM550.767 390.019L549.017 389.053C550.936 385.578 552.802 382.01 554.563 378.446L556.355 379.333C554.582 382.923 552.701 386.518 550.767 390.019H550.767ZM561.447 368.398L559.615 367.596C561.209 363.956 562.739 360.228 564.164 356.518L566.031 357.234C564.596 360.975 563.053 364.73 561.447 368.398H561.447ZM77.5449 364.083C76.0117 360.403 74.5435 356.639 73.1812 352.893L75.061 352.209C76.4126 355.927 77.8696 359.662 79.3906 363.313L77.5449 364.083ZM570.096 345.867L568.197 345.238C569.445 341.477 570.623 337.634 571.697 333.812L573.623 334.353C572.54 338.204 571.353 342.078 570.096 345.867ZM69.3286 341.484C68.1387 337.673 67.0205 333.779 66.0054 329.91L67.94 329.402C68.9473 333.242 70.0572 337.106 71.2378 340.889L69.3286 341.484ZM576.614 322.689L574.666 322.236C575.562 318.382 576.38 314.445 577.1 310.538L579.066 310.899C578.342 314.838 577.517 318.804 576.614 322.689ZM63.2203 318.195C62.3863 314.289 61.6314 310.31 60.9771 306.365L62.9498 306.037C63.5997 309.952 64.3487 313.901 65.1763 317.777L63.2203 318.195ZM580.973 299.012L578.99 298.74C579.528 294.823 579.982 290.829 580.341 286.868L582.333 287.048C581.972 291.04 581.514 295.064 580.973 299.012ZM59.2788 294.445C58.8072 290.486 58.42 286.454 58.1275 282.461L60.1226 282.314C60.4121 286.278 60.7969 290.279 61.2652 294.209L59.2788 294.445ZM583.147 275.036L581.149 274.946C581.327 270.983 581.418 266.964 581.418 263H583.418C583.418 266.994 583.327 271.044 583.147 275.036ZM57.5215 270.435C57.4531 267.982 57.4185 265.48 57.418 263C57.418 261.461 57.4312 259.925 57.4575 258.392L59.4575 258.427C59.4312 259.948 59.418 261.473 59.418 263C59.4184 265.462 59.4531 267.945 59.5205 270.38L57.5215 270.435ZM59.9321 246.487L57.936 246.362C58.1855 242.366 58.5303 238.33 58.9595 234.365L60.9478 234.581C60.5215 238.515 60.1802 242.52 59.9322 246.487H59.9321ZM580.127 234.285C579.727 230.342 579.178 228.42 578.598 224.494L580.576 224.202C581.16 228.158 581.661 231.177 582.064 235.15L580.127 234.285ZM62.5049 222.734L60.5283 222.428C61.1411 218.472 61.853 214.484 62.6445 210.574L64.6045 210.971C63.8194 214.851 63.1128 218.808 62.5049 222.734H62.5049ZM576.579 212.718C575.816 208.817 574.956 204.89 574.021 201.046L575.964 200.573C576.906 204.446 577.773 208.404 578.542 212.334L576.579 212.718ZM67.2422 199.317L65.3023 198.831C66.2735 194.957 67.3492 191.051 68.4995 187.221L70.4145 187.796C69.2735 191.597 68.2061 195.473 67.2422 199.317ZM570.927 189.503C569.812 185.695 568.593 181.865 567.305 178.117L569.195 177.466C570.494 181.243 571.723 185.104 572.847 188.941L570.927 189.503ZM74.127 176.403L72.2403 175.74C73.5694 171.959 75.0044 168.161 76.5054 164.449L78.3599 165.199C76.8701 168.882 75.4458 172.652 74.127 176.403ZM563.16 166.909C561.701 163.228 560.139 159.534 558.516 155.929L560.34 155.108C561.976 158.741 563.55 162.463 565.02 166.171L563.16 166.909ZM83.1035 154.206L81.2862 153.371C82.9566 149.733 84.7344 146.085 86.5703 142.529L88.3477 143.446C86.5254 146.976 84.7613 150.596 83.1035 154.206ZM553.372 145.17C551.582 141.64 549.686 138.102 547.735 134.656L549.476 133.67C551.441 137.143 553.352 140.708 555.155 144.266L553.372 145.17ZM94.0806 132.941L92.3472 131.943C94.3423 128.478 96.4463 125.011 98.6011 121.637L100.287 122.713C98.1485 126.061 96.0601 129.503 94.0806 132.941ZM541.622 124.406C539.509 121.041 537.296 117.69 535.045 114.444L536.688 113.304C538.956 116.575 541.187 119.952 543.315 123.342L541.622 124.406ZM106.954 112.782L105.319 111.63C107.625 108.36 110.035 105.101 112.485 101.942L114.065 103.168C111.634 106.303 109.241 109.537 106.954 112.782ZM528.018 104.79C525.608 101.633 523.098 98.4951 520.556 95.4628L522.089 94.1782C524.65 97.2338 527.179 100.395 529.608 103.576L528.018 104.79ZM121.607 93.8911L120.085 92.5942C122.672 89.5551 125.369 86.5302 128.1 83.6035L129.562 84.9677C126.852 87.8725 124.175 90.8749 121.607 93.8911ZM512.677 86.4828C509.99 83.5585 507.203 80.6601 504.395 77.8691L505.805 76.4501C508.635 79.2631 511.442 82.1831 514.149 85.1293L512.677 86.4828ZM137.912 76.4189L136.513 74.9892C139.373 72.1913 142.333 69.4252 145.309 66.768L146.641 68.2602C143.687 70.8969 140.75 73.642 137.912 76.4189V76.4189ZM495.729 69.6391C492.785 66.9687 489.745 64.3349 486.694 61.811L487.97 60.27C491.043 62.813 494.106 65.4668 497.073 68.1577L495.729 69.6391ZM155.73 60.5073L154.467 58.9565C157.561 56.4375 160.757 53.9531 163.969 51.5722L165.161 53.1786C161.973 55.5419 158.8 58.0073 155.73 60.5073H155.73ZM174.912 46.29L173.796 44.6308C177.106 42.4033 180.515 40.2221 183.926 38.1464L184.965 39.8554C181.58 41.915 178.198 44.08 174.912 46.29H174.912ZM195.3 33.8886L194.34 32.1337C197.842 30.2172 201.434 28.3579 205.014 26.6064L205.893 28.4033C202.34 30.1411 198.776 31.9863 195.3 33.8886ZM436.67 29.2548C433.111 27.4819 429.466 25.769 425.835 24.164L426.644 22.3349C430.303 23.9521 433.977 25.6782 437.562 27.4648L436.67 29.2548ZM216.722 23.4106L215.927 21.5756C219.587 19.9892 223.331 18.4677 227.055 17.0532L227.765 18.9233C224.069 20.3266 220.354 21.8364 216.722 23.4106ZM414.773 19.5761C411.07 18.1401 407.28 16.77 403.508 15.5043L404.145 13.6079C407.945 14.8837 411.765 16.2641 415.496 17.7119L414.773 19.5761ZM239.03 14.9394L238.407 13.039C242.208 11.7929 246.086 10.6196 249.933 9.55267L250.467 11.4794C246.65 12.5385 242.802 13.7026 239.03 14.9394H239.03ZM392.094 11.9658C388.279 10.8784 384.389 9.86566 380.53 8.95599L380.989 7.00972C384.878 7.92622 388.798 8.94672 392.643 10.0419L392.094 11.9658ZM262.052 8.55024L261.607 6.60053C265.503 5.71039 269.473 4.89936 273.404 4.19038L273.759 6.15815C269.857 6.86225 265.919 7.66694 262.052 8.55024ZM368.84 6.48335C364.945 5.75235 360.979 5.102 357.049 4.55024L357.326 2.56976C361.286 3.12592 365.284 3.78119 369.209 4.51752L368.84 6.48335ZM285.564 4.30708L285.3 2.32465C289.259 1.79633 293.285 1.352 297.267 1.00532L297.44 2.99751C293.489 3.34223 289.494 3.78262 285.564 4.30708ZM345.181 3.15961C341.241 2.78851 337.231 2.50238 333.262 2.31049L333.359 0.312447C337.358 0.506297 341.398 0.794379 345.368 1.16845L345.181 3.15961ZM309.366 2.23042L309.282 0.232414C312.958 0.0790942 316.704 0.00098 320.418 0L321.323 0.00145721L321.317 2.00146L320.418 2C316.732 2.00093 313.014 2.07856 309.366 2.23042Z" fill="#3F3D56"/>
<path d="M902 652.292H169V654.292H902V652.292Z" fill="#3F3D56"/>
<path d="M598.011 316.025L608.011 471.025C608.011 471.025 632.011 532.025 631.011 590.025C631.011 590.025 622.011 613.025 629.011 617.025C636.011 621.025 640.011 624.025 636.011 627.025C632.011 630.025 629.011 637.025 632.011 639.025C635.011 641.025 636.011 644.025 635.011 644.025H605.011C605.011 644.025 611.011 629.025 602.011 625.025C593.011 621.025 598.011 611.025 598.011 611.025L531.011 415.025L478.011 595.025C478.011 595.025 487.011 601.025 480.011 604.025C473.011 607.025 470.011 601.025 473.011 607.025C476.011 613.025 472.011 616.025 472.011 617.025C472.011 618.025 442.011 614.025 442.011 614.025C442.011 614.025 457.011 601.025 450.011 598.025C443.011 595.025 440.011 592.025 442.011 590.025C444.011 588.025 452.011 569.025 452.011 569.025C452.011 569.025 456.011 497.025 457.011 494.025C458.011 491.025 457.011 477.025 457.011 470.025C457.011 463.025 456.011 435.025 459.011 428.025C462.011 421.025 465.011 335.025 481.011 325.025C497.011 315.025 598.011 316.025 598.011 316.025Z" fill="#2F2E41"/>
<path d="M471.01 612.025C471.01 612.025 491.01 653.025 477.01 658.025C463.01 663.025 445.01 659.025 441.01 665.025C437.01 671.025 393.01 678.025 392.01 663.025C391.01 648.025 440.01 620.025 440.01 620.025L446.393 609.747L471.01 612.025Z" fill="#2F2E41"/>
<path d="M633.01 642.025C633.01 642.025 653.01 683.025 639.01 688.025C625.01 693.025 607.01 689.025 603.01 695.025C599.01 701.025 555.01 708.025 554.01 693.025C553.01 678.025 602.01 650.025 602.01 650.025L608.393 639.747L633.01 642.025Z" fill="#2F2E41"/>
<path d="M540.511 127.525C558.736 127.525 573.511 112.751 573.511 94.5251C573.511 76.2997 558.736 61.5251 540.511 61.5251C522.285 61.5251 507.511 76.2997 507.511 94.5251C507.511 112.751 522.285 127.525 540.511 127.525Z" fill="#A0616A"/>
<path d="M563.011 112.025L559.011 141.025L529.011 164.025L521.011 153.025V115.025L563.011 112.025Z" fill="#A0616A"/>
<path d="M516.011 149.025C516.011 149.025 547.011 152.025 563.011 141.025L595.011 330.025C595.011 330.025 482.011 339.025 477.011 333.025V274.025L497.011 178.025L516.011 149.025Z" fill="#3F3D56"/>
<path d="M560.257 131.989L571.01 141.025C571.01 141.025 615.01 148.025 612.01 160.025L600.01 302.025L604.01 350.025C604.01 350.025 570.01 341.025 544.01 350.025C518.01 359.025 538.667 156.622 538.667 156.622C538.667 156.622 562.503 134.953 560.257 131.989Z" fill="#7FA4C7"/>
<path d="M521.011 142.935C521.011 142.935 489.011 166.025 485.011 181.025C481.011 196.025 468.011 354.025 468.011 354.025C468.011 354.025 474.011 351.025 477.011 356.025C480.011 361.025 526.011 150.844 521.011 142.935Z" fill="#7FA4C7"/>
<path d="M507.527 93.0875C507.527 93.0875 503.954 87.7288 505.328 81.9579C506.149 78.6814 506.473 75.3003 506.29 71.9275C506.29 71.9275 509.176 62.5842 512.061 57.3629C514.946 52.1417 513.572 49.9432 522.641 48.2944C531.71 46.6456 528 34.829 551.908 47.6074C552.714 48.7336 553.836 49.5956 555.132 50.0847C556.428 50.5738 557.84 50.668 559.19 50.3554C564.136 49.3936 565.923 56.2637 565.923 56.2637C565.923 56.2637 569.22 54.34 570.457 57.0881C571.694 59.8361 580.511 55.4388 580.511 73.9881C580.511 92.5374 570.477 109.107 570.477 109.107C570.477 109.107 571.213 77.9045 554.862 74.7443C538.511 71.5841 520.923 62.3781 516.664 74.1947C514.365 80.8268 511.298 87.1674 507.527 93.0875Z" fill="#2F2E41"/>
<path d="M570.835 100.506C572.616 100.506 574.06 98.5809 574.06 96.206C574.06 93.831 572.616 91.9058 570.835 91.9058C569.053 91.9058 567.609 93.831 567.609 96.206C567.609 98.5809 569.053 100.506 570.835 100.506Z" fill="#A0616A"/>
<path d="M435.301 405.45C427.388 400.691 417.847 401.055 414.22 401.418C415.601 404.791 419.745 413.392 427.658 418.153C435.59 422.924 445.119 422.549 448.74 422.188C447.36 418.817 443.215 410.212 435.301 405.45Z" fill="#7FA4C7"/>
<path d="M472.484 499.874H423.028C420.077 499.874 417.246 501.046 415.16 503.133C413.073 505.22 411.9 508.05 411.9 511.001C411.9 513.952 413.073 516.783 415.16 518.87C417.246 520.956 420.077 522.129 423.028 522.129H472.484C475.433 522.126 478.261 520.952 480.345 518.866C482.43 516.779 483.601 513.95 483.601 511.001C483.601 508.052 482.43 505.223 480.345 503.136C478.261 501.05 475.433 499.876 472.484 499.874Z" fill="#7FA4C7"/>
<path d="M696.438 382.416H419.153C415.928 382.416 412.734 383.051 409.754 384.285C406.774 385.52 404.066 387.329 401.785 389.61C399.504 391.891 397.695 394.598 396.461 397.578C395.226 400.558 394.591 403.752 394.591 406.978V542.076C394.591 548.591 397.179 554.838 401.785 559.445C406.391 564.051 412.639 566.639 419.153 566.639H696.438C699.663 566.639 702.857 566.004 705.837 564.769C708.817 563.535 711.525 561.726 713.806 559.445C716.087 557.164 717.896 554.456 719.13 551.476C720.365 548.496 721 545.302 721 542.076V406.978C721 403.752 720.365 400.558 719.13 397.578C717.896 394.598 716.087 391.891 713.806 389.61C711.525 387.329 708.817 385.52 705.837 384.285C702.857 383.051 699.663 382.416 696.438 382.416ZM412.293 399.171C412.84 399.072 425.824 396.862 436.576 403.332C447.327 409.8 451.457 422.308 451.628 422.836L452.062 424.185L450.667 424.433C448.677 424.743 446.664 424.891 444.65 424.874C439.767 424.874 432.692 424.067 426.383 420.271C415.632 413.804 411.503 401.296 411.332 400.767L410.898 399.418L412.293 399.171ZM472.484 524.601H423.028C419.421 524.601 415.962 523.168 413.411 520.618C410.861 518.067 409.428 514.608 409.428 511.001C409.428 507.394 410.861 503.935 413.411 501.384C415.962 498.833 419.421 497.401 423.028 497.401H472.484C476.091 497.401 479.55 498.833 482.101 501.384C484.651 503.935 486.084 507.394 486.084 511.001C486.084 514.608 484.651 518.067 482.101 520.618C479.55 523.168 476.091 524.601 472.484 524.601ZM697.508 522.129C697.497 526.06 695.93 529.827 693.15 532.607C690.37 535.387 686.603 536.954 682.672 536.965H645.58C641.648 536.954 637.881 535.387 635.101 532.607C632.321 529.827 630.755 526.06 630.743 522.129V499.873C630.754 495.942 632.321 492.175 635.101 489.395C637.881 486.615 641.648 485.048 645.58 485.037H682.672C686.603 485.048 690.37 486.615 693.15 489.395C695.93 492.175 697.497 495.942 697.509 499.873L697.508 522.129Z" fill="#7FA4C7"/>
<path d="M657.325 517.801H641.252C640.105 517.801 639.004 518.257 638.192 519.069C637.381 519.88 636.925 520.981 636.925 522.129C636.925 523.276 637.381 524.377 638.192 525.189C639.004 526 640.105 526.456 641.252 526.456H657.325C658.473 526.456 659.574 526 660.385 525.189C661.197 524.377 661.653 523.276 661.653 522.129C661.653 520.981 661.197 519.88 660.385 519.069C659.574 518.257 658.473 517.801 657.325 517.801ZM657.325 523.983H641.252C641.008 523.984 640.767 523.936 640.541 523.843C640.316 523.75 640.111 523.614 639.938 523.442C639.765 523.269 639.628 523.065 639.535 522.839C639.441 522.614 639.393 522.373 639.393 522.129C639.393 521.885 639.441 521.643 639.535 521.418C639.628 521.193 639.765 520.988 639.938 520.816C640.111 520.644 640.316 520.507 640.541 520.414C640.767 520.321 641.008 520.274 641.252 520.274H657.325C657.569 520.274 657.811 520.321 658.036 520.414C658.262 520.507 658.467 520.644 658.64 520.816C658.812 520.988 658.949 521.193 659.043 521.418C659.136 521.643 659.184 521.885 659.184 522.129C659.184 522.373 659.136 522.614 659.043 522.839C658.949 523.065 658.812 523.269 658.64 523.442C658.467 523.614 658.262 523.75 658.036 523.843C657.811 523.936 657.569 523.984 657.325 523.983Z" fill="#7FA4C7"/>
<path d="M686.999 517.801H670.926C670.357 517.8 669.794 517.912 669.268 518.129C668.742 518.346 668.264 518.664 667.862 519.066C667.459 519.468 667.14 519.946 666.922 520.471C666.704 520.997 666.592 521.56 666.592 522.129C666.592 522.698 666.704 523.261 666.922 523.786C667.14 524.312 667.459 524.789 667.862 525.191C668.264 525.593 668.742 525.911 669.268 526.129C669.794 526.346 670.357 526.457 670.926 526.456H686.999C688.147 526.456 689.247 526 690.059 525.189C690.87 524.377 691.326 523.276 691.326 522.129C691.326 520.981 690.87 519.88 690.059 519.069C689.247 518.257 688.147 517.801 686.999 517.801ZM686.999 523.983H670.926C670.682 523.984 670.44 523.936 670.215 523.843C669.989 523.75 669.784 523.614 669.612 523.442C669.439 523.269 669.302 523.065 669.208 522.839C669.115 522.614 669.067 522.373 669.067 522.129C669.067 521.885 669.115 521.643 669.208 521.418C669.302 521.193 669.439 520.988 669.612 520.816C669.784 520.644 669.989 520.507 670.215 520.414C670.44 520.321 670.682 520.274 670.926 520.274H686.999C687.49 520.275 687.961 520.471 688.308 520.819C688.654 521.167 688.849 521.638 688.849 522.129C688.849 522.62 688.654 523.091 688.308 523.439C687.961 523.786 687.49 523.982 686.999 523.983Z" fill="#7FA4C7"/>
<path d="M657.325 506.674H641.252C640.105 506.674 639.004 507.13 638.192 507.941C637.381 508.753 636.925 509.853 636.925 511.001C636.925 512.149 637.381 513.249 638.192 514.061C639.004 514.872 640.105 515.328 641.252 515.328H657.325C657.894 515.329 658.458 515.218 658.983 515.001C659.509 514.784 659.987 514.465 660.39 514.063C660.792 513.661 661.111 513.184 661.329 512.659C661.547 512.133 661.659 511.57 661.659 511.001C661.659 510.432 661.547 509.869 661.329 509.343C661.111 508.818 660.792 508.341 660.39 507.939C659.987 507.537 659.509 507.218 658.983 507.001C658.458 506.784 657.894 506.673 657.325 506.674ZM657.325 512.856H641.252C640.76 512.856 640.289 512.66 639.941 512.312C639.593 511.965 639.398 511.493 639.398 511.001C639.398 510.509 639.593 510.037 639.941 509.69C640.289 509.342 640.76 509.146 641.252 509.146H657.325C657.817 509.146 658.289 509.342 658.637 509.69C658.985 510.037 659.18 510.509 659.18 511.001C659.18 511.493 658.985 511.965 658.637 512.312C658.289 512.66 657.817 512.856 657.325 512.856Z" fill="#7FA4C7"/>
<path d="M686.999 506.674H670.926C670.357 506.673 669.794 506.784 669.268 507.001C668.742 507.218 668.264 507.537 667.862 507.939C667.459 508.341 667.14 508.818 666.922 509.343C666.704 509.869 666.592 510.432 666.592 511.001C666.592 511.57 666.704 512.133 666.922 512.659C667.14 513.184 667.459 513.661 667.862 514.063C668.264 514.465 668.742 514.784 669.268 515.001C669.794 515.218 670.357 515.329 670.926 515.328H686.999C688.147 515.328 689.247 514.872 690.059 514.061C690.87 513.249 691.326 512.149 691.326 511.001C691.326 509.853 690.87 508.753 690.059 507.941C689.247 507.13 688.147 506.674 686.999 506.674ZM686.999 512.856H670.926C670.434 512.856 669.962 512.66 669.614 512.312C669.267 511.965 669.071 511.493 669.071 511.001C669.071 510.509 669.267 510.037 669.614 509.69C669.962 509.342 670.434 509.146 670.926 509.146H686.999C687.491 509.146 687.963 509.342 688.31 509.69C688.658 510.037 688.854 510.509 688.854 511.001C688.854 511.493 688.658 511.965 688.31 512.312C687.963 512.66 687.491 512.856 686.999 512.856Z" fill="#7FA4C7"/>
<path d="M657.325 495.546H641.252C640.105 495.546 639.004 496.002 638.192 496.814C637.381 497.625 636.925 498.726 636.925 499.874C636.925 501.021 637.381 502.122 638.192 502.933C639.004 503.745 640.105 504.201 641.252 504.201H657.325C658.473 504.201 659.574 503.745 660.385 502.933C661.197 502.122 661.653 501.021 661.653 499.874C661.653 498.726 661.197 497.625 660.385 496.814C659.574 496.002 658.473 495.546 657.325 495.546ZM657.325 501.728H641.252C640.76 501.728 640.289 501.533 639.941 501.185C639.593 500.837 639.398 500.365 639.398 499.874C639.398 499.382 639.593 498.91 639.941 498.562C640.289 498.214 640.76 498.019 641.252 498.019H657.325C657.817 498.019 658.289 498.214 658.637 498.562C658.985 498.91 659.18 499.382 659.18 499.874C659.18 500.365 658.985 500.837 658.637 501.185C658.289 501.533 657.817 501.728 657.325 501.728Z" fill="#7FA4C7"/>
<path d="M686.999 495.546H670.926C670.357 495.545 669.794 495.657 669.268 495.874C668.742 496.091 668.264 496.409 667.862 496.811C667.459 497.213 667.14 497.691 666.922 498.216C666.704 498.741 666.592 499.305 666.592 499.874C666.592 500.442 666.704 501.006 666.922 501.531C667.14 502.057 667.459 502.534 667.862 502.936C668.264 503.338 668.742 503.656 669.268 503.873C669.794 504.091 670.357 504.202 670.926 504.201H686.999C688.146 504.199 689.245 503.743 690.055 502.931C690.865 502.12 691.32 501.02 691.32 499.874C691.32 498.727 690.865 497.627 690.055 496.816C689.245 496.005 688.146 495.548 686.999 495.546ZM686.999 501.728H670.926C670.434 501.728 669.962 501.533 669.614 501.185C669.267 500.837 669.071 500.365 669.071 499.874C669.071 499.382 669.267 498.91 669.614 498.562C669.962 498.214 670.434 498.019 670.926 498.019H686.999C687.491 498.019 687.963 498.214 688.31 498.562C688.658 498.91 688.854 499.382 688.854 499.874C688.854 500.365 688.658 500.837 688.31 501.185C687.963 501.533 687.491 501.728 686.999 501.728Z" fill="#7FA4C7"/>
<path d="M609.01 352.025L601.842 375.417C601.842 375.417 600.01 419.025 576.01 413.025C552.01 407.025 583.01 356.025 583.01 356.025L590.01 345.025L609.01 352.025Z" fill="#A0616A"/>
<path d="M473.01 352.025L465.842 375.417C465.842 375.417 464.01 419.025 440.01 413.025C416.01 407.025 447.01 356.025 447.01 356.025L454.01 345.025L473.01 352.025Z" fill="#A0616A"/>
<path d="M604.011 153.025C604.011 153.025 620.011 149.025 625.011 176.025C630.011 203.025 636.011 280.025 636.011 280.025L612.011 361.025C612.011 361.025 588.011 348.025 583.011 350.025L601.897 279.704L586.011 208.025C586.011 208.025 600.011 153.025 604.011 153.025Z" fill="#7FA4C7"/>
<path opacity="0.15" d="M580.747 209.393L601.747 279.393L580.747 350.393L592.747 279.393L580.747 209.393Z" fill="black"/>
<path d="M485.011 208.025L449.011 350.025C449.011 350.025 468 356.292 475 361.292L485.011 208.025Z" fill="#7FA4C7"/>
<path d="M107.362 564.884C162.591 564.884 207.362 520.113 207.362 464.884C207.362 409.656 162.591 364.884 107.362 364.884C52.1338 364.884 7.3623 409.656 7.3623 464.884C7.3623 520.113 52.1338 564.884 107.362 564.884Z" fill="#3F3D56"/>
<path opacity="0.1" d="M107.362 550.884C154.859 550.884 193.362 512.381 193.362 464.884C193.362 417.388 154.859 378.884 107.362 378.884C59.8658 378.884 21.3623 417.388 21.3623 464.884C21.3623 512.381 59.8658 550.884 107.362 550.884Z" fill="black"/>
<path d="M103.241 515.632V503.115C96.9136 502.992 90.3678 500.76 86.5498 497.662L89.1678 489.359C93.7051 492.759 99.2076 494.625 104.877 494.687C112.623 494.687 117.859 489.606 117.859 482.542C117.859 475.726 113.605 471.513 105.532 467.794C94.4043 462.837 87.5315 457.136 87.5315 446.354C87.5315 436.068 93.9681 428.26 104.005 426.401V413.884H110.768V425.906C115.812 425.975 120.731 427.479 124.951 430.243L122.223 438.423C118.176 435.653 113.381 434.183 108.477 434.209C100.078 434.209 96.9136 439.91 96.9136 444.867C96.9136 451.311 100.95 454.534 110.441 458.996C121.678 464.201 127.351 470.645 127.351 481.675C127.351 491.465 121.35 500.637 110.114 502.742V515.632H103.241Z" fill="#0086CB"/>
<path d="M213 668.292C142.39 678.823 70.6096 678.823 0 668.292V644.292C70.6845 653.759 142.316 653.759 213 644.292V668.292Z" fill="#3F3D56"/>
<path d="M213 631.292C142.39 641.823 70.6096 641.823 0 631.292V607.292C70.6845 616.759 142.316 616.759 213 607.292V631.292Z" fill="#3F3D56"/>
<path d="M213 594.292C142.39 604.823 70.6096 604.823 0 594.292V570.292C70.6845 579.759 142.316 579.759 213 570.292V594.292Z" fill="#3F3D56"/>
</g>
<defs>
<clipPath id="clip0">
<rect width="902" height="702.007" fill="white"/>
</clipPath>
</defs>
</svg>
