<svg width="91" height="111" viewBox="0 0 91 111" fill="none" xmlns="http://www.w3.org/2000/svg">
<path d="M45.8799 0.960052L0.879883 20.96V50.96C0.879883 78.71 20.0799 104.66 45.8799 110.96C71.6799 104.66 90.8799 78.71 90.8799 50.96V20.96L45.8799 0.960052ZM80.8799 50.96C80.8799 60.21 78.3299 69.21 73.9799 77.01L66.7299 69.76C73.1799 60.06 72.0799 46.86 63.5299 38.31C53.7799 28.56 37.9299 28.56 28.1799 38.31C18.4299 48.06 18.4299 63.91 28.1799 73.66C36.7299 82.21 49.9299 83.26 59.6299 76.86L68.2299 85.46C62.2799 92.56 54.5799 98.01 45.8799 100.66C25.7799 94.41 10.8799 73.56 10.8799 50.96V27.46L45.8799 11.91L80.8799 27.46V50.96ZM45.8799 70.96C37.5799 70.96 30.8799 64.26 30.8799 55.96C30.8799 47.66 37.5799 40.96 45.8799 40.96C54.1799 40.96 60.8799 47.66 60.8799 55.96C60.8799 64.26 54.1799 70.96 45.8799 70.96Z" fill="black"/>
</svg>
