<svg width="100" height="106" viewBox="0 0 100 106" fill="none" xmlns="http://www.w3.org/2000/svg">
<path d="M98.3507 86.0106L71.8507 59.5106H66.9007L54.2007 72.2106V77.1606L80.7007 103.661C82.6507 105.611 85.8007 105.611 87.7507 103.661L98.3507 93.0606C100.301 91.1606 100.301 87.9606 98.3507 86.0106ZM84.2007 93.1106L63.0007 71.9106L66.5507 68.3606L87.7507 89.5606L84.2007 93.1106Z" fill="black"/>
<path d="M76.7 46.11L83.75 39.06L94.35 49.66C100.2 43.81 100.2 34.31 94.35 28.46L76.65 10.76L69.6 17.81V3.70997L66.1 0.159973L48.4 17.86L51.95 21.41H66.1L59.05 28.46L64.35 33.76L49.9 48.21L29.25 27.56V20.46L14.15 5.35997L0 19.51L15.15 34.66H22.2L42.85 55.31L38.6 59.56H28L1.5 86.06C-0.45 88.0099 -0.45 91.16 1.5 93.1099L12.1 103.71C14.05 105.66 17.2 105.66 19.15 103.71L45.65 77.21V66.61L71.4 40.86L76.7 46.11ZM36.8 71.86L15.6 93.0599L12.05 89.5099L33.25 68.31L36.8 71.86Z" fill="black"/>
</svg>
