<svg width="115" height="84" viewBox="0 0 115 84" fill="none" xmlns="http://www.w3.org/2000/svg">
<path d="M99.0002 21.3599H83.4002V0.559906H10.6002C4.8802 0.559906 0.200195 5.2399 0.200195 10.9599V68.1599H10.6002C10.6002 76.7919 17.5682 83.7599 26.2002 83.7599C34.8322 83.7599 41.8002 76.7919 41.8002 68.1599H73.0002C73.0002 76.7919 79.9682 83.7599 88.6002 83.7599C97.2322 83.7599 104.2 76.7919 104.2 68.1599H114.6V42.1599L99.0002 21.3599ZM96.4002 29.1599L106.592 42.1599H83.4002V29.1599H96.4002ZM26.2002 73.3599C23.3402 73.3599 21.0002 71.0199 21.0002 68.1599C21.0002 65.2999 23.3402 62.9599 26.2002 62.9599C29.0602 62.9599 31.4002 65.2999 31.4002 68.1599C31.4002 71.0199 29.0602 73.3599 26.2002 73.3599ZM37.7442 57.7599C34.8842 54.5879 30.8282 52.5599 26.2002 52.5599C21.5722 52.5599 17.5162 54.5879 14.6562 57.7599H10.6002V10.9599H73.0002V57.7599H37.7442ZM88.6002 73.3599C85.7402 73.3599 83.4002 71.0199 83.4002 68.1599C83.4002 65.2999 85.7402 62.9599 88.6002 62.9599C91.4602 62.9599 93.8002 65.2999 93.8002 68.1599C93.8002 71.0199 91.4602 73.3599 88.6002 73.3599Z" fill="black"/>
</svg>
